#!OML:ASF E:\acrobat2\Project_11_07_03\Capture day 1\Session 1\Acrobat.ASF
:FULLY-SPECIFIED
:DEGREES
174
root 8.86654 17.9803 -37.4812 3.62202 3.92884 -0.767128
lowerback -3.06381 1.23179 4.0935
upperback 0.26988 1.46795 1.07725
thorax 2.07073 0.771826 -1.115
lowerneck 2.97796 -3.86894 -1.04965
upperneck 4.02245 -5.32373 5.35394
head 0.933594 -2.63594 1.84528
rclavicle 1.29459e-014 -6.36111e-015
rhumerus -39.1343 2.1394 -84.3986
rradius 27.4852
rwrist 7.82358
rhand 3.38277 -50.5723
rfingers 7.12502
rthumb 28.8263 -78.3658
lclavicle 1.29459e-014 -6.36111e-015
lhumerus -34.0726 -18.1836 94.6915
lradius 24.1963
lwrist 11.5376
lhand -9.53055 -11.1254
lfingers 7.12502
lthumb 16.4357 18.1983
rfemur 3.73738 5.84241 24.4272
rtibia 5.97136
rfoot -25.199 -15.8537
rtoes 7.58004
lfemur -19.9058 -1.32665 -14.7649
ltibia 39.7802
lfoot -11.1014 -8.01352
ltoes 6.13623
175
root 8.85984 17.9807 -37.451 3.67201 3.88047 -0.702831
lowerback -3.0214 1.28836 4.08163
upperback 0.273079 1.54606 1.07041
thorax 2.05399 0.810449 -1.11233
lowerneck 3.00142 -3.86039 -1.05023
upperneck 4.07023 -5.31361 5.33896
head 0.943799 -2.63046 1.8407
rclavicle 6.18717e-015 2.18663e-014
rhumerus -39.1325 1.95843 -84.3208
rradius 27.3505
rwrist 7.86182
rhand 3.38858 -50.5485
rfingers 7.12502
rthumb 28.8318 -78.341
lclavicle 6.18717e-015 2.18663e-014
lhumerus -34.2261 -18.1492 94.7502
lradius 24.273
lwrist 11.4935
lhand -9.34678 -11.0106
lfingers 7.12502
lthumb 16.6126 18.2984
rfemur 3.76545 5.91077 24.4125
rtibia 6.03579
rfoot -25.3711 -15.8179
rtoes 7.55822
lfemur -20.66 -1.2045 -14.8785
ltibia 40.4434
lfoot -10.9553 -8.09277
ltoes 5.19767
176
root 8.85318 17.9808 -37.4188 3.72863 3.82174 -0.600914
lowerback -2.9839 1.34272 4.03266
upperback 0.278573 1.62255 1.04747
thorax 2.04167 0.848055 -1.10548
lowerneck 2.99024 -3.84609 -1.04563
upperneck 4.11572 -5.29548 5.31124
head 0.95829 -2.62056 1.83043
rclavicle -2.72335e-014 2.78299e-015
rhumerus -39.1404 1.79754 -84.2698
rradius 27.2348
rwrist 7.88143
rhand 3.5048 -50.5848
rfingers 7.12502
rthumb 28.9428 -78.3584
lclavicle -2.72335e-014 2.78299e-015
lhumerus -34.4058 -18.1605 94.822
lradius 24.3953
lwrist 11.4864
lhand -9.24107 -10.8076
lfingers 7.12502
lthumb 16.7144 18.4928
rfemur 3.81461 5.9938 24.3541
rtibia 6.06957
rfoot -25.5583 -15.8013
rtoes 7.46368
lfemur -21.3816 -1.10176 -15.0354
ltibia 40.9407
lfoot -10.7521 -8.21506
ltoes 5.08241
177
root 8.84632 17.9806 -37.3849 3.79202 3.74231 -0.502395
lowerback -2.94806 1.40748 4.00392
upperback 0.281735 1.7125 1.00406
thorax 2.02973 0.892682 -1.13032
lowerneck 2.9668 -3.82583 -1.02875
upperneck 4.14 -5.26864 5.29654
head 0.967947 -2.60622 1.82217
rclavicle 1.74434e-014 5.1684e-015
rhumerus -39.1683 1.61597 -84.2491
rradius 27.1386
rwrist 7.88718
rhand 3.68258 -50.6385
rfingers 7.12502
rthumb 29.1126 -78.3829
lclavicle 1.74434e-014 5.1684e-015
lhumerus -34.6149 -18.2347 94.8869
lradius 24.5401
lwrist 11.5249
lhand -9.20903 -10.6347
lfingers 7.12502
lthumb 16.7452 18.6631
rfemur 3.87233 6.10519 24.304
rtibia 6.0842
rfoot -25.7564 -15.8062
rtoes 7.29623
lfemur -22.0749 -0.997628 -15.1814
ltibia 41.2662
lfoot -10.4984 -8.363
ltoes 5.4545
178
root 8.83955 17.9804 -37.3503 3.86322 3.64304 -0.450656
lowerback -2.9014 1.4824 4.03897
upperback 0.278384 1.81449 0.958
thorax 2.00779 0.943773 -1.19334
lowerneck 2.93347 -3.79736 -1.01993
upperneck 4.15128 -5.23099 5.29674
head 0.975539 -2.58659 1.82007
rclavicle -6.01324e-015 1.66979e-014
rhumerus -39.217 1.43965 -84.2546
rradius 27.0516
rwrist 7.82866
rhand 3.76578 -50.5811
rfingers 7.12502
rthumb 29.1921 -78.3117
lclavicle -6.01324e-015 1.66979e-014
lhumerus -34.8427 -18.3479 94.9499
lradius 24.681
lwrist 11.6098
lhand -9.23615 -10.5497
lfingers 7.12502
lthumb 16.7191 18.7504
rfemur 3.92245 6.23885 24.3116
rtibia 6.09336
rfoot -25.9356 -15.8283
rtoes 7.04944
lfemur -22.7465 -0.884528 -15.2652
ltibia 41.4187
lfoot -10.2177 -8.51075
ltoes 5.72807
179
root 8.8332 17.9802 -37.3149 3.9413 3.5333 -0.449103
lowerback -2.84878 1.5529 4.13988
upperback 0.273855 1.90848 0.920177
thorax 1.98312 0.991453 -1.28532
lowerneck 2.88758 -3.74835 -1.04487
upperneck 4.15009 -5.16663 5.30901
head 0.981769 -2.55408 1.82771
rclavicle -1.51573e-014 4.37326e-015
rhumerus -39.2744 1.32473 -84.2912
rradius 26.9842
rwrist 7.71457
rhand 3.73631 -50.4135
rfingers 7.12502
rthumb 29.1639 -78.149
lclavicle -1.51573e-014 4.37326e-015
lhumerus -35.071 -18.4501 95.0058
lradius 24.8002
lwrist 11.7297
lhand -9.30872 -10.5753
lfingers 7.12502
lthumb 16.6492 18.7306
rfemur 3.96574 6.37707 24.3775
rtibia 6.09786
rfoot -26.0729 -15.8543
rtoes 6.75754
lfemur -23.3875 -0.771771 -15.2855
ltibia 41.3928
lfoot -9.91325 -8.64017
ltoes 5.69023
180
root 8.82761 17.9798 -37.2775 4.01998 3.42197 -0.462831
lowerback -2.78433 1.61038 4.26973
upperback 0.260582 1.98511 0.883313
thorax 1.94326 1.03036 -1.39392
lowerneck 2.86045 -3.68136 -1.08911
upperneck 4.12021 -5.07716 5.3164
head 0.975276 -2.51014 1.83786
rclavicle 7.87684e-015 5.1684e-015
rhumerus -39.3588 1.29686 -84.369
rradius 26.9412
rwrist 7.54685
rhand 3.5763 -50.1089
rfingers 7.12502
rthumb 29.0111 -77.8707
lclavicle 7.87684e-015 5.1684e-015
lhumerus -35.3154 -18.5154 95.0527
lradius 24.8877
lwrist 11.8632
lhand -9.41209 -10.7153
lfingers 7.12502
lthumb 16.5497 18.5989
rfemur 4.02485 6.49594 24.4574
rtibia 6.08431
rfoot -26.1697 -15.8666
rtoes 6.41872
lfemur -23.9726 -0.678428 -15.2873
ltibia 41.1794
lfoot -9.5545 -8.73575
ltoes 5.58017
181
root 8.82284 17.9785 -37.2377 4.1087 3.30212 -0.466532
lowerback -2.73778 1.66054 4.3884
upperback 0.243308 2.05168 0.846923
thorax 1.90874 1.0641 -1.49594
lowerneck 2.89719 -3.61324 -1.1446
upperneck 4.02676 -4.98296 5.31291
head 0.937747 -2.466 1.84818
rclavicle -1.94064e-014 2.78299e-015
rhumerus -39.4621 1.3553 -84.4799
rradius 26.9305
rwrist 7.33699
rhand 3.31452 -49.7061
rfingers 7.12502
rthumb 28.7611 -77.5107
lclavicle -1.94064e-014 2.78299e-015
lhumerus -35.5619 -18.5335 95.0941
lradius 24.9392
lwrist 11.9821
lhand -9.52422 -10.9206
lfingers 7.12502
lthumb 16.4418 18.4026
rfemur 4.08785 6.59772 24.5176
rtibia 6.05904
rfoot -26.2362 -15.8581
rtoes 6.07013
lfemur -24.5129 -0.608324 -15.2988
ltibia 40.7988
lfoot -9.11339 -8.79001
ltoes 5.85836
182
root 8.8181 17.9762 -37.196 4.21349 3.16699 -0.4528
lowerback -2.71556 1.70526 4.46131
upperback 0.226288 2.11103 0.822001
thorax 1.88591 1.09389 -1.56031
lowerneck 2.95777 -3.53546 -1.1833
upperneck 3.8791 -4.87176 5.26018
head 0.876589 -2.41461 1.8405
rclavicle 1.70209e-014 -2.38542e-015
rhumerus -39.5641 1.49892 -84.608
rradius 26.9529
rwrist 7.10921
rhand 3.04365 -49.327
rfingers 7.12502
rthumb 28.5023 -77.1753
lclavicle 1.70209e-014 -2.38542e-015
lhumerus -35.7916 -18.4756 95.1293
lradius 24.9565
lwrist 12.0572
lhand -9.62405 -11.1136
lfingers 7.12502
lthumb 16.3456 18.2176
rfemur 4.14265 6.72574 24.5584
rtibia 6.02961
rfoot -26.3014 -15.8554
rtoes 5.82052
lfemur -25.0271 -0.547796 -15.32
ltibia 40.2811
lfoot -8.60049 -8.79569
ltoes 6.7257
183
root 8.81246 17.9732 -37.1524 4.31855 3.01991 -0.415216
lowerback -2.69514 1.74489 4.47524
upperback 0.220864 2.165 0.803935
thorax 1.87338 1.12072 -1.58477
lowerneck 2.99666 -3.45671 -1.2073
upperneck 3.7117 -4.75749 5.1692
head 0.811428 -2.36159 1.81757
rclavicle 3.50358e-015 1.39149e-014
rhumerus -39.6363 1.70081 -84.7524
rradius 26.9924
rwrist 6.89691
rhand 2.86031 -49.0815
rfingers 7.12502
rthumb 28.3271 -76.959
lclavicle 3.50358e-015 1.39149e-014
lhumerus -35.9814 -18.3446 95.1404
lradius 24.9404
lwrist 12.0709
lhand -9.70462 -11.2333
lfingers 7.12502
lthumb 16.2681 18.1042
rfemur 4.2121 6.8947 24.5855
rtibia 6.00641
rfoot -26.3941 -15.8948
rtoes 5.6086
lfemur -25.5027 -0.49149 -15.3524
ltibia 39.6423
lfoot -8.02922 -8.74744
ltoes 8.27246
184
root 8.80622 17.9696 -37.1067 4.41227 2.86956 -0.360785
lowerback -2.6473 1.78735 4.45439
upperback 0.220154 2.22541 0.779116
thorax 1.84969 1.15034 -1.59729
lowerneck 2.98406 -3.38267 -1.18774
upperneck 3.56823 -4.64892 5.03395
head 0.76049 -2.30989 1.77159
rclavicle 1.16538e-014 3.18055e-014
rhumerus -39.6951 1.91102 -84.9129
rradius 27.0473
rwrist 6.72174
rhand 2.80561 -48.9968
rfingers 7.12502
rthumb 28.2748 -76.883
lclavicle 1.16538e-014 3.18055e-014
lhumerus -36.1468 -18.1834 95.1253
lradius 24.8953
lwrist 12.0181
lhand -9.77139 -11.2536
lfingers 7.12502
lthumb 16.2038 18.0891
rfemur 4.32047 7.11212 24.6065
rtibia 5.94821
rfoot -26.5199 -15.961
rtoes 5.6181
lfemur -25.9278 -0.442208 -15.3935
ltibia 38.8909
lfoot -7.41471 -8.64056
ltoes 10.3623
185
root 8.80024 17.9657 -37.0582 4.47951 2.73617 -0.29706
lowerback -2.57517 1.83523 4.44329
upperback 0.228122 2.29423 0.72741
thorax 1.82332 1.18447 -1.64316
lowerneck 2.94185 -3.31938 -1.11205
upperneck 3.44352 -4.55402 4.87671
head 0.719149 -2.26366 1.70814
rclavicle 1.04362e-014 -2.34566e-014
rhumerus -39.7522 2.07672 -85.0949
rradius 27.1165
rwrist 6.60487
rhand 2.88349 -49.0561
rfingers 7.12502
rthumb 28.3492 -76.9299
lclavicle 1.04362e-014 -2.34566e-014
lhumerus -36.3112 -18.0528 95.0801
lradius 24.8399
lwrist 11.9364
lhand -9.82582 -11.1805
lfingers 7.12502
lthumb 16.1514 18.1666
rfemur 4.49792 7.30467 24.6195
rtibia 5.84287
rfoot -26.6396 -16.0239
rtoes 5.71635
lfemur -26.2783 -0.414306 -15.4472
ltibia 38.0226
lfoot -6.78393 -8.47651
ltoes 12.5061
186
root 8.79501 17.9614 -37.0068 4.52252 2.63294 -0.244228
lowerback -2.48898 1.87898 4.4554
upperback 0.247579 2.35737 0.667922
thorax 1.80193 1.21631 -1.71056
lowerneck 2.89469 -3.26069 -1.01486
upperneck 3.30274 -4.46434 4.71238
head 0.673456 -2.21993 1.63888
rclavicle 2.96686e-014 2.74323e-014
rhumerus -39.8097 2.23503 -85.2886
rradius 27.1916
rwrist 6.49733
rhand 2.9822 -49.1398
rfingers 7.12502
rthumb 28.4436 -76.9979
lclavicle 2.96686e-014 2.74323e-014
lhumerus -36.4691 -17.9269 95.0162
lradius 24.7737
lwrist 11.8528
lhand -9.86494 -11.0535
lfingers 7.12502
lthumb 16.1137 18.2966
rfemur 4.74138 7.46929 24.6444
rtibia 5.6704
rfoot -26.7244 -16.0809
rtoes 5.93184
lfemur -26.5642 -0.423849 -15.4937
ltibia 37.0519
lfoot -6.14812 -8.27102
ltoes 14.5088
